<svg class="svg-icon" style="width: 1em; height: 1em;vertical-align: middle;fill: currentColor;overflow: hidden;" viewBox="0 0 1024 1024" version="1.1" xmlns="http://www.w3.org/2000/svg"><path d="M962.725448 1003.351728c-3.888564 4.359284-9.434883 6.845918-15.267728 6.845918L90.449012 1010.197646c-5.832845 0-11.389398-2.486634-15.277962-6.845918-3.87833-4.349051-5.720282-10.151197-5.065366-15.943111l81.629135-714.175629c1.176802-10.335393 9.92607-18.143219 20.333094-18.143219l70.679759 0c11.307533 0 20.466124 9.15859 20.466124 20.466124s-9.15859 20.466124-20.466124 20.466124l-52.423977 0-76.942393 673.243381 811.133891 0-76.942393-673.243381-64.110133 0c-11.2973 0-20.466124-9.15859-20.466124-20.466124s9.168824-20.466124 20.466124-20.466124l82.365916 0c10.407024 0 19.156292 7.807826 20.343327 18.143219l81.618902 714.175629C968.44573 993.20053 966.603779 999.002676 962.725448 1003.351728z"  /><path d="M640.701221 275.555893c0 11.307533-9.15859 20.466124-20.466124 20.466124l-198.951191 0c-11.307533 0-20.466124-9.15859-20.466124-20.466124s9.15859-20.466124 20.466124-20.466124l198.951191 0C631.54263 255.089769 640.701221 264.24836 640.701221 275.555893z"  /><path d="M743.400231 377.579521c0 22.533202-18.266016 40.809451-40.809451 40.809451-22.533202 0-40.809451-18.276249-40.809451-40.809451 0-15.0733 8.176217-28.243251 20.343327-35.304064L682.124655 214.341716c0-89.979314-73.197092-163.176406-163.176406-163.176406s-163.176406 73.197092-163.176406 163.176406l0 127.933741c12.167111 7.060813 20.343327 20.230764 20.343327 35.304064 0 22.533202-18.276249 40.809451-40.809451 40.809451-22.543436 0-40.809451-18.276249-40.809451-40.809451 0-15.0733 8.176217-28.243251 20.343327-35.304064L314.839595 214.341716c0-112.543216 91.565439-204.108654 204.108654-204.108654s204.108654 91.565439 204.108654 204.108654l0 127.933741C735.224014 349.33627 743.400231 362.506221 743.400231 377.579521z"  /></svg>